<svg id="Layer_1" data-name="Layer 1" xmlns="http://www.w3.org/2000/svg" viewBox="0 0 407.27 145.7"><defs><style>.cls-1{fill:#0694b4;}</style></defs><title>Amason_Black</title><path d="M219.76,254.79c-14-2-27.7-1.18-41.48-.94.06-.32,0-.67.16-.8,4.07-3.38,5-7.66,4.74-12.86-.6-11.49-.2-23,0-34.53,0-.86.9-2.28-.83-2.7s-2.39.69-3,2c-5.61,12.88-10.66,26-16.86,38.63-.56,1.14-1.06,2.33-1.71,3.42-.47.81-.51,2.18-1.84,2.09-1.14-.08-1.56-1.2-2-2.06-1.53-2.8-3-5.63-4.42-8.49-4.55-9.27-8.34-18.86-12.15-28.44-.77-1.94-1.8-3.78-2.76-5.64a1.75,1.75,0,0,0-1.78-1.06c-1.07.17-.69,1.13-.69,1.78,0,13.43,0,26.86,0,40.29,0,2.3,1.24,3.92,2.65,5.52.7.8,1.76,1.36,1.88,2.53-.15.16-.3.41-.36.39-4.45-1.41-9-1.35-13.57-.9-6.38.63-12.78.24-19.17.48-2.24.09-4.56-.4-6.7.8a1.23,1.23,0,0,1-1.7-.39,1.42,1.42,0,0,1,.18-1.79c1.72-1.65,1.09-3.46.57-5.32q-1.17-4.09-2.22-8.2a2.17,2.17,0,0,0-2.54-1.83c-7.12.21-14.25.2-21.36.75a5.1,5.1,0,0,0-4.12,2.26,17.15,17.15,0,0,0-2.93,9.27,4.8,4.8,0,0,0,1.55,3.39c.63.73,1.67,1.15,1.87,2.66-7-.67-13.94-1.43-21.32-1.56a62.68,62.68,0,0,0,7.65-13.41c.72-1.58,2.25-2.33,3.64-3.21,8.93-5.63,18.41-9.59,29.15-10.09,3.78-.17,3.88-.48,2.81-4.11-2.23-7.52-3.62-15.28-6.41-22.64-.34-.91-.22-2.53-1.66-2.43-1.18.09-1.51,1.5-1.83,2.51-1.63,5.12-3.41,10.22-4.69,15.44-.72,2.91-2.09,4.51-4.91,5.4-3.68,1.17-7.24,2.73-11.47,4.35,1.53-4.53,2.72-8.41,4.14-12.22,4.63-12.4,7.76-25.28,12-37.81,1.14-3.39,2-3.83,6.12-4.2,3-.26,5.21.21,6.44,3.45,3.34,8.8,5.66,17.92,8.59,26.84q6.72,20.4,13.51,40.79a26.69,26.69,0,0,0,3.43,6.83c1.53,2.19,3.43,2.23,5.47,1a7.3,7.3,0,0,0,3.66-6.86c-.1-17.63-.49-35.27,0-52.89.22-7.44-1.59-13.2-7.35-17.75a8.89,8.89,0,0,1-.9-1.06c2.71,0,5.12,0,7.53,0,3.47,0,6.94,0,10.41-.18a4.26,4.26,0,0,1,4.1,2.08c3.52,5,5.2,10.84,7.55,16.37,3.63,8.56,6.72,17.35,11,25.66.57,1.12.86,2.59,2.43,2.66s2.19-1.48,2.8-2.64c4.26-8,7.48-16.44,11.26-24.64,2.48-5.39,4.73-10.88,7.87-15.94a6,6,0,0,1,5.78-3.28c5.81.18,11.63,0,17.52,0-.12.71-1.18,1.18-2,1.8-4.84,3.75-7.28,8.24-7,14.79.86,18.43.33,36.9.41,55.35a28.58,28.58,0,0,0,.18,3.82c.37,2.72,1.75,3.43,4.36,2.34a8.42,8.42,0,0,0,4.64-5.17c2-5.81,6.23-8.52,11.69-10.78a96.51,96.51,0,0,1,23.38-6.49c4.33-.61,4.54-1,3.38-5.06-2.07-7.28-4.28-14.52-6.55-21.74-.34-1.09-.3-2.91-1.91-2.92s-2.09,1.61-2.47,3.09c-1.39,5.39-2.93,10.74-4.32,16.12a5.86,5.86,0,0,1-4.09,4.61c-3,1-5.92,2.38-8.86,3.61-.76.31-1.58.9-2.29.27s-.19-1.56.05-2.31c2.69-8.33,5.37-16.67,8.12-25,2.44-7.36,4.22-14.92,7.13-22.13A8.54,8.54,0,0,1,237.72,171c1.11.34,1.34,1.44,1.72,2.31,3.23,7.47,5.4,15.31,7.83,23,4.91,15.67,9.58,31.41,14.94,46.93,1.52,4.4,3.69,8.34,7.55,11.43a128,128,0,0,0-21.55.2c-.07-.41-.18-.67-.11-.73,4-3.57,2.19-7.65.92-11.59-1.86-5.77-1.93-5.8-7.87-5.56-5.65.22-11.3.62-17,.84a5.79,5.79,0,0,0-3.7,1.47,10.55,10.55,0,0,0-1.41,14.12A8.85,8.85,0,0,1,219.76,254.79Z" transform="translate(-47.82 -170.65)"/><path class="cls-1" d="M239.06,316.07c-22.23,1.15-43.73-3.12-64.58-10.64-17.45-6.29-34-14.4-48.15-26.79a31.87,31.87,0,0,1-5.37-5.82c-.66-1-1.24-2.29-.45-3.32s1.89-.19,2.81.08c5.22,1.54,9.73,4.59,14.48,7.09A108.79,108.79,0,0,0,156.19,284c17.18,5.37,34.74,9.17,52.39,12.55a222.73,222.73,0,0,0,27.17,3.19,160.06,160.06,0,0,0,43.39-2.81c9.93-2.06,19.77-4.82,29.67-7.1,8.31-1.91,16.5-4.23,24.83-6a13.45,13.45,0,0,1,2.46-.16,2.73,2.73,0,0,1,2.74,1.88c.6,1.4-.32,2.24-1.32,2.95-4.06,2.87-8.71,4.59-13.18,6.64-7.57,3.48-15.27,6.66-23,9.72C281.33,312.69,260.82,317.58,239.06,316.07Z" transform="translate(-47.82 -170.65)"/><path d="M386.44,171.64c5.35.74,10.25.6,15.12.86,2.54.13,3.89,2.15,5.24,4,3.82,5.26,6.76,11,10,16.67,5,8.7,9,17.94,15.38,25.82a5.93,5.93,0,0,0,1.7,1.72c1.38.67,2.63.86,2.72-1.41.5-12.79.3-25.57.21-38.36,0-3-2.76-4.35-4.34-6.4-.49-.61-1.66-1-1.35-1.85s1.44-.45,2.18-.45c7.21,0,14.42,0,21.82,0,.17.7-1,1.15-1.58,1.8a15.69,15.69,0,0,0-4.5,11.68c.77,18.63.14,37.26,0,55.89,0,4.43-.72,9.14,4.4,11.92-4.76,1.65-12.33-.15-15.16-3.43-4.78-5.56-8.36-12-12.29-18.1q-6.2-9.69-12.35-19.4a28.28,28.28,0,0,0-4.61-5.4c-.39-.37-.81-.87-1.39-.71s-.55.86-.57,1.37c-.33,12.6-1.15,25.19-.5,37.8a8.74,8.74,0,0,0,2.8,6.31c.75.7,1.84,1.24,1.91,2.72-7.43-.46-14.78-1.75-22.89-.24a68.08,68.08,0,0,0,5.49-7.86,9.83,9.83,0,0,0,1.21-4.94c0-18.54-.1-37.08.07-55.62a12,12,0,0,0-3.21-8.34C390.25,175.78,388,174.44,386.44,171.64Z" transform="translate(-47.82 -170.65)"/><path d="M382.9,215.45a42.36,42.36,0,0,1-4.27,22.89c-4.6,8.85-16.83,14.82-26.73,13.82-14.65-1.47-24.66-15.1-26.13-27.72a76.41,76.41,0,0,1,1.72-28.84c3.33-12.32,11.44-22.55,26.7-23.08,6.48-.22,12,2.66,16.69,7.12,8,7.52,11.35,17,12,27.64C383,209.83,382.9,212.39,382.9,215.45Zm-45.19.13A54.23,54.23,0,0,0,339,229.39c1.92,8.23,11.44,14.07,19.42,11.7,5.32-1.58,8.63-5.38,10.29-10.51,3.72-11.48,3.27-23-.27-34.42a16.23,16.23,0,0,0-7.73-9.56,14.21,14.21,0,0,0-20.43,8.15C338.09,201.24,337.67,208,337.71,215.58Z" transform="translate(-47.82 -170.65)"/><path d="M293.11,253.09c-9.17,0-16.63-3.74-22.81-10.37-1.63-1.75-1.7-3.25.09-4.9a51.28,51.28,0,0,0,4.18-4.29c1.53-1.82,2.42-1.56,3.56.46a15.63,15.63,0,0,0,19.17,7.21c4.43-1.73,6.53-5.27,6.89-9.72.34-4.1-2.49-6.46-5.74-8.24s-7.15-2.71-10.76-4a59.67,59.67,0,0,1-10.34-5.07c-11.4-6.67-12.52-25.08-3.1-35.08,6.5-6.9,22.35-8.73,29.83-3.36,4.1,2.95,7.58,6.56,11.4,9.8.89.75.7,1.31-.22,1.88a39.75,39.75,0,0,0-7.72,6.92c-1.16,1.24-1.88,1.1-2.73-.18-.7-1.06-1.42-2.12-2.16-3.15-5.54-7.77-17.52-7.17-21.28,1.07-1.44,3.16-.69,6.26,1.52,8.93,3.51,4.26,8.62,5.48,13.33,7.44,3.29,1.36,6.51,2.82,9.71,4.4,15,7.42,13.34,28.36,1.39,36.17C302.72,252,299.76,253,293.11,253.09Z" transform="translate(-47.82 -170.65)"/><path class="cls-1" d="M352.11,262.13c9.9-.57,10.74,5.17,8.71,11.72-3.14,10.1-7.29,19.65-14.71,27.45a20.92,20.92,0,0,1-4.47,3.59c-.8.46-1.53,1.52-2.65.71a3.39,3.39,0,0,1-1.38-3.11c.12-2.67,1.61-4.8,2.81-7a106.47,106.47,0,0,0,7.27-15.89c1.53-4.5.29-6.12-4.52-5.7-8.26.72-16.52,1.49-24.79,2.2-1.19.1-2.71.72-3.27-1s.78-2.55,2-3.15A90.42,90.42,0,0,1,352.11,262.13Z" transform="translate(-47.82 -170.65)"/></svg>